<svg width="180" height="80" viewBox="0 0 180 80" fill="none" xmlns="http://www.w3.org/2000/svg">
<path d="M54.5962 31.6341H56.376C56.5315 31.6341 56.6809 31.7026 56.7867 31.8146L71.6034 48.2741C71.9394 48.6475 72.5617 48.411 72.5617 47.907V32.4742C72.5617 32.1693 72.8044 31.9266 73.1093 31.9266H77.8263C78.1312 31.9266 78.3739 32.1693 78.3739 32.4742V61.1804C78.3739 61.4853 78.1312 61.728 77.8263 61.728H76.0092C75.8536 61.728 75.7043 61.6596 75.5985 61.5476L60.8253 45.1316C60.4893 44.7582 59.867 44.9947 59.867 45.4987V60.8879C59.867 61.1929 59.6243 61.4355 59.3194 61.4355H54.6024C54.2975 61.4355 54.0548 61.1929 54.0548 60.8879V32.1817C54.0486 31.8768 54.2913 31.6341 54.5962 31.6341Z" fill="#4B68F2"/>
<path d="M93.738 61.7281C92.4436 61.7281 91.1928 61.5476 89.9856 61.1805C88.7783 60.8133 87.6396 60.2968 86.5692 59.6185H86.6128C85.8536 59.1394 85.1815 58.6229 84.5903 58.0566C84.2543 57.733 83.9743 57.4654 83.7565 57.2476C83.5387 57.0236 83.5449 56.6689 83.7751 56.4573L87.3471 53.1592C87.5649 52.96 87.8947 52.9725 88.1063 53.1778C88.2681 53.3334 88.4672 53.5076 88.6974 53.6943C89.133 54.049 89.6309 54.3851 90.1909 54.7086C90.751 55.0322 91.3422 55.3061 91.9582 55.5301C92.5743 55.7541 93.1655 55.8661 93.7255 55.8661C94.2047 55.8661 94.6839 55.8101 95.1568 55.6981C95.636 55.5861 96.0716 55.4118 96.4636 55.1691C96.8557 54.9327 97.1793 54.6153 97.4344 54.2233C97.6895 53.8312 97.814 53.3396 97.814 52.7484C97.814 52.5244 97.7393 52.2755 97.5837 52.0079C97.4282 51.7403 97.1606 51.4541 96.781 51.1429C96.4014 50.8318 95.8724 50.502 95.2004 50.1535C94.5283 49.805 93.682 49.4316 92.6739 49.0334C91.4915 48.5853 90.3963 48.0999 89.3882 47.5772C88.3739 47.0607 87.4964 46.4446 86.7559 45.7415C86.0092 45.0383 85.4366 44.2355 85.0259 43.3394C84.6214 42.4371 84.4161 41.3979 84.4161 40.2217C84.4161 39.0145 84.6401 37.8819 85.0882 36.8303C85.5362 35.7786 86.1772 34.8638 87.0048 34.0922C87.8325 33.3206 88.8344 32.7169 89.998 32.2813C91.1617 31.8457 92.4499 31.6279 93.8562 31.6279C94.6154 31.6279 95.4244 31.7275 96.2832 31.9204C97.1419 32.1195 97.9758 32.3685 98.791 32.6796C99.6062 32.9907 100.372 33.3454 101.087 33.7562C101.598 34.0486 102.052 34.3411 102.438 34.6398C102.687 34.8265 102.736 35.1812 102.537 35.4239L99.5626 39.1639C99.3884 39.3879 99.0772 39.4314 98.8345 39.2759C98.4301 39.0145 98.0256 38.7718 97.6086 38.5416C97.1295 38.2864 96.5819 38.05 95.9658 37.8259C95.3497 37.6019 94.715 37.4899 94.0678 37.4899C92.8855 37.4899 91.9645 37.7201 91.3048 38.1869C90.695 38.6162 90.3652 39.2199 90.3216 39.9977C90.2967 40.4395 90.4025 40.8876 90.6639 41.2485C90.9003 41.5783 91.2302 41.877 91.6471 42.1508C92.0516 42.4184 92.5245 42.6611 93.0597 42.8851C93.5949 43.1092 94.1549 43.3208 94.7461 43.5199C96.4325 44.1671 97.8513 44.8205 99.0026 45.4801C100.154 46.1397 101.081 46.8429 101.784 47.5897C102.487 48.3364 102.985 49.1329 103.278 49.9917C103.57 50.8505 103.72 51.7839 103.72 52.792C103.72 54.0304 103.464 55.194 102.96 56.2893C102.456 57.3845 101.759 58.3366 100.876 59.1331C99.992 59.9359 98.9341 60.5644 97.7144 61.0311C96.501 61.4978 95.1755 61.7281 93.738 61.7281Z" fill="#4B68F2"/>
<path d="M128.649 37.7886H121.649C121.344 37.7886 121.101 38.0313 121.101 38.3362V60.888C121.101 61.1929 120.858 61.4356 120.553 61.4356H115.793C115.488 61.4356 115.245 61.1929 115.245 60.888V38.3362C115.245 38.0313 115.003 37.7886 114.698 37.7886H107.616C107.311 37.7886 107.068 37.5459 107.068 37.241V32.4805C107.068 32.1755 107.311 31.9329 107.616 31.9329H128.649C128.954 31.9329 129.197 32.1755 129.197 32.4805V37.241C129.197 37.5397 128.948 37.7886 128.649 37.7886Z" fill="#4B68F2"/>
<path d="M144.462 31.9577L157.25 60.6639C157.411 61.0248 157.144 61.4355 156.746 61.4355H151.5C151.282 61.4355 151.089 61.3111 150.996 61.112L148.88 56.3701C148.793 56.171 148.594 56.0465 148.376 56.0465H137.834C137.616 56.0465 137.424 56.171 137.336 56.3701C137.007 57.1231 136.658 57.9196 136.279 58.7659C135.899 59.606 135.563 60.3901 135.258 61.112C135.171 61.3173 134.978 61.4418 134.754 61.4418H129.552C129.153 61.4418 128.892 61.0373 129.048 60.6701L141.674 31.9639C141.761 31.7648 141.96 31.6341 142.178 31.6341H143.951C144.175 31.6341 144.375 31.7586 144.462 31.9577ZM145.787 49.4067L143.597 44.4782C143.404 44.0425 142.788 44.0425 142.595 44.4782L140.404 49.4067C140.242 49.7676 140.51 50.1783 140.908 50.1783H145.289C145.681 50.1783 145.949 49.7738 145.787 49.4067Z" fill="#4B68F2"/>
<path d="M179.452 61.4356H162.805C162.501 61.4356 162.258 61.1929 162.258 60.888V32.4805C162.258 32.1755 162.501 31.9329 162.805 31.9329H167.566C167.871 31.9329 168.114 32.1755 168.114 32.4805V55.0322C168.114 55.3372 168.356 55.5799 168.661 55.5799H179.452C179.757 55.5799 179.999 55.8226 179.999 56.1275V60.888C179.999 61.1867 179.757 61.4356 179.452 61.4356Z" fill="#4B68F2"/>
<path d="M45.1688 71.7158H40.6945C39.6553 71.7158 38.8027 70.8633 38.8027 69.824V16.5374C38.8027 15.4982 39.6553 14.6456 40.6945 14.6456H45.1688C46.208 14.6456 47.0605 15.4982 47.0605 16.5374V69.824C47.0605 70.8695 46.208 71.7158 45.1688 71.7158Z" fill="#4C94F6"/>
<path d="M5.93938 41.485C6.80436 22.2313 22.6167 6.7052 41.8828 6.16381C52.9782 5.85267 63.022 10.4638 70.0103 17.9562C70.7135 18.7092 71.8772 18.815 72.6924 18.1802C73.2275 17.7633 73.7503 17.3339 74.2606 16.8983C75.1193 16.164 75.1878 14.8572 74.4223 14.0296C66.0339 4.97524 53.7997 -0.476017 40.3395 0.320514C18.1425 1.63354 0.457003 20.072 0.00895431 42.3002C-0.308413 57.9819 7.83736 71.8091 20.1774 79.5566C21.0548 80.1043 22.206 79.8927 22.8283 79.0713C23.2266 78.5485 23.6124 78.0258 23.9982 77.4969C24.6765 76.5634 24.4089 75.2566 23.4319 74.6468C12.4672 67.8265 5.31086 55.4491 5.93938 41.485Z" fill="#4C94F6"/>
<path d="M59.4877 74.7899C59.6308 75.0824 59.8237 75.3127 60.0664 75.4807C60.3153 75.6549 60.6016 75.7731 60.9439 75.8478C61.2799 75.9225 61.6408 75.9598 62.0266 75.9598C62.2444 75.9598 62.4871 75.9287 62.7423 75.8665C62.9974 75.8043 63.2401 75.7047 63.4641 75.5678C63.6882 75.4309 63.8748 75.2566 64.0242 75.0388C64.1735 74.821 64.2482 74.5659 64.2482 74.261C64.2482 74.0245 64.1984 73.8254 64.0926 73.6511C63.9869 73.4769 63.8499 73.3338 63.6819 73.2155C63.5139 73.0973 63.3272 73.004 63.1219 72.9293C62.9165 72.8546 62.7174 72.7924 62.5245 72.7488L60.6576 72.2883C60.4149 72.2261 60.1784 72.1452 59.9482 72.0519C59.7179 71.9585 59.5188 71.8341 59.3446 71.6785C59.1703 71.5229 59.0334 71.33 58.9276 71.106C58.8218 70.882 58.7721 70.6019 58.7721 70.2721C58.7721 70.0668 58.8094 69.8303 58.8903 69.5565C58.9712 69.2827 59.1143 69.0275 59.3321 68.7786C59.5499 68.5359 59.8424 68.3306 60.2158 68.1626C60.5892 67.9945 61.0745 67.9074 61.6595 67.9074C62.0764 67.9074 62.4685 67.9634 62.8481 68.0692C63.2214 68.1812 63.5513 68.343 63.8313 68.5608C64.1113 68.7786 64.3353 69.0524 64.5034 69.376C64.6714 69.6996 64.7585 70.0792 64.7585 70.5086H63.962C63.9433 70.185 63.8748 69.905 63.7442 69.6685C63.6135 69.432 63.4455 69.2329 63.2401 69.0711C63.0348 68.9093 62.7921 68.7911 62.5245 68.7102C62.2569 68.6293 61.9706 68.5857 61.6719 68.5857C61.3981 68.5857 61.1305 68.6168 60.8816 68.6728C60.6265 68.7288 60.4025 68.8284 60.2096 68.9529C60.0166 69.0773 59.8611 69.2516 59.7428 69.4631C59.6246 69.6747 59.5686 69.9361 59.5686 70.2472C59.5686 70.4401 59.5997 70.6144 59.6682 70.7575C59.7366 70.9006 59.8237 71.0251 59.942 71.1246C60.0602 71.2242 60.1971 71.3113 60.3465 71.3736C60.4958 71.4358 60.6638 71.4856 60.8318 71.5291L62.873 72.0332C63.1716 72.1141 63.4517 72.2074 63.713 72.3194C63.9744 72.4315 64.2047 72.5746 64.4038 72.7426C64.6029 72.9106 64.7585 73.116 64.8705 73.3587C64.9825 73.6014 65.0385 73.8938 65.0385 74.2423C65.0385 74.3357 65.0261 74.4601 65.0074 74.6157C64.9887 74.7713 64.939 74.9393 64.8643 75.1135C64.7896 75.2878 64.6838 75.4682 64.5469 75.6487C64.41 75.8292 64.2233 75.991 63.9806 76.1341C63.7442 76.2772 63.4455 76.3954 63.097 76.4888C62.7423 76.5759 62.3191 76.6257 61.8275 76.6257C61.3359 76.6257 60.8754 76.5697 60.4522 76.4577C60.0291 76.3456 59.6682 76.1714 59.3695 75.9349C59.0708 75.6985 58.8405 75.3998 58.6849 75.0326C58.5231 74.6655 58.4547 74.2236 58.4796 73.7071H59.2761C59.2823 74.1427 59.3446 74.4975 59.4877 74.7899Z" fill="#4C94F6"/>
<path d="M83.8381 68.0879V68.7662H78.8473V71.7967H83.5207V72.475H78.8473V75.7856H83.8941V76.4639H78.0508V68.0817H83.8381V68.0879Z" fill="#4C94F6"/>
<path d="M100.589 68.0878C100.931 68.0878 101.261 68.1314 101.572 68.2185C101.883 68.3056 102.151 68.4363 102.381 68.6106C102.611 68.7848 102.798 69.015 102.935 69.2889C103.072 69.5689 103.14 69.8925 103.14 70.2721C103.14 70.8072 103.003 71.2677 102.729 71.6598C102.456 72.0518 102.051 72.3007 101.51 72.4127V72.4376C101.784 72.475 102.008 72.5496 102.188 72.6554C102.369 72.7612 102.512 72.8981 102.63 73.0599C102.742 73.2217 102.823 73.4146 102.879 73.6324C102.929 73.8502 102.966 74.0805 102.978 74.3294C102.985 74.4725 102.991 74.6405 103.003 74.8459C103.01 75.0513 103.028 75.2566 103.053 75.462C103.078 75.6673 103.115 75.8665 103.165 76.0469C103.215 76.2336 103.283 76.3767 103.37 76.4763H102.487C102.437 76.3954 102.4 76.3021 102.375 76.19C102.35 76.078 102.325 75.9598 102.319 75.8353C102.306 75.7171 102.3 75.5926 102.288 75.4744C102.275 75.3562 102.269 75.2566 102.263 75.1695C102.244 74.8708 102.219 74.5783 102.188 74.2858C102.151 73.9934 102.076 73.732 101.964 73.5017C101.852 73.2715 101.684 73.0848 101.472 72.9417C101.255 72.7986 100.962 72.7363 100.589 72.755H97.5582V76.4763H96.7617V68.0941H100.589V68.0878ZM100.527 72.0643C100.769 72.0643 101 72.0269 101.217 71.9523C101.435 71.8776 101.628 71.7718 101.79 71.6287C101.952 71.4855 102.082 71.3175 102.182 71.1184C102.281 70.9193 102.331 70.689 102.331 70.4339C102.331 69.9174 102.182 69.5129 101.883 69.2142C101.584 68.9155 101.13 68.7661 100.52 68.7661H97.5396V72.0643H100.527Z" fill="#4C94F6"/>
<path d="M116.321 68.0878L119.046 75.5864H119.071L121.772 68.0878H122.618L119.507 76.4701H118.579L115.48 68.0878H116.321Z" fill="#4C94F6"/>
<path d="M135.949 68.0878V76.4701H135.152V68.0878H135.949Z" fill="#4C94F6"/>
<path d="M155.215 69.7618C155.053 69.5067 154.86 69.2951 154.63 69.1209C154.4 68.9466 154.145 68.816 153.864 68.7288C153.584 68.6417 153.292 68.5919 152.987 68.5919C152.433 68.5919 151.954 68.6977 151.556 68.9093C151.158 69.1209 150.828 69.4009 150.573 69.7494C150.317 70.0979 150.131 70.4899 150.006 70.9317C149.888 71.3673 149.826 71.8216 149.826 72.2821C149.826 72.7364 149.888 73.1844 150.006 73.6263C150.125 74.0681 150.317 74.4663 150.573 74.8148C150.828 75.1633 151.151 75.4433 151.556 75.6549C151.954 75.8665 152.433 75.9723 152.987 75.9723C153.379 75.9723 153.728 75.9038 154.045 75.7607C154.356 75.6176 154.63 75.4309 154.854 75.1882C155.078 74.9455 155.265 74.6593 155.408 74.3357C155.551 74.0121 155.638 73.6636 155.675 73.284H156.472C156.416 73.8005 156.298 74.2672 156.111 74.6841C155.924 75.1011 155.682 75.4496 155.383 75.742C155.084 76.0345 154.736 76.2523 154.331 76.4141C153.927 76.5759 153.479 76.6506 152.987 76.6506C152.327 76.6506 151.755 76.5324 151.257 76.2897C150.759 76.0532 150.349 75.7296 150.019 75.3313C149.689 74.9331 149.446 74.4726 149.278 73.9436C149.116 73.4209 149.029 72.8671 149.029 72.2883C149.029 71.7096 149.11 71.1558 149.278 70.633C149.44 70.1103 149.689 69.6436 150.019 69.2391C150.349 68.8346 150.759 68.5173 151.257 68.2746C151.755 68.0381 152.334 67.9136 152.987 67.9136C153.385 67.9136 153.777 67.9696 154.157 68.0879C154.537 68.2061 154.879 68.3803 155.19 68.6106C155.501 68.8408 155.756 69.1271 155.968 69.4631C156.173 69.7992 156.304 70.185 156.36 70.6268H155.563C155.495 70.3032 155.377 70.0108 155.215 69.7618Z" fill="#4C94F6"/>
<path d="M175.227 68.0879V68.7662H170.236V71.7967H174.909V72.475H170.236V75.7856H175.283V76.4639H169.439V68.0817H175.227V68.0879Z" fill="#4C94F6"/>
</svg>
