<svg width="10" height="10" viewBox="0 0 10 10" fill="none" xmlns="http://www.w3.org/2000/svg">
<g clip-path="url(#clip0)">
<path d="M6.87653 5.00064L9.69081 2.18593C10.1036 1.77318 10.1036 1.09768 9.69081 0.684926L9.31578 0.309888C8.90302 -0.103296 8.22753 -0.103296 7.81477 0.309888L5.00049 3.1246L2.18578 0.309888C1.77345 -0.102867 1.09796 -0.102867 0.6852 0.309888L0.309733 0.684926C-0.102593 1.09768 -0.102593 1.77318 0.309733 2.18593L3.12401 5.00021L0.309733 7.81492C-0.102593 8.22768 -0.102593 8.90318 0.309733 9.3155L0.6852 9.69054C1.09796 10.1033 1.77345 10.1033 2.18578 9.69054L5.00049 6.87669L7.81477 9.69054C8.22753 10.1033 8.90302 10.1033 9.31578 9.69054L9.69081 9.3155C10.1036 8.90275 10.1036 8.22725 9.69081 7.81492L6.87653 5.00064Z" fill="#333333"/>
</g>
<defs>
<clipPath id="clip0">
<rect width="10" height="10" fill="white"/>
</clipPath>
</defs>
</svg>
