<svg width="17" height="17" viewBox="0 0 17 17" fill="none" xmlns="http://www.w3.org/2000/svg">
<path fill-rule="evenodd" clip-rule="evenodd" d="M3.99664 15.8462C3.99664 15.8462 4.24986 17 5.55325 17H11.4466C12.7499 17 13.0031 15.8462 13.0031 15.8462L14.1666 4.53336H2.83326L3.99664 15.8462ZM10.7666 6.23338C10.7666 5.92039 11.0203 5.66673 11.3333 5.66673C11.6462 5.66673 11.9 5.92039 11.9 6.23338L11.3333 14.7334C11.3333 15.0464 11.0795 15.3 10.7666 15.3C10.4537 15.3 10.1999 15.0463 10.1999 14.7334L10.7666 6.23338ZM7.93327 6.23338C7.93327 5.92039 8.18699 5.66673 8.49992 5.66673C8.81292 5.66673 9.06658 5.92039 9.06658 6.23338V14.7334C9.06658 15.0464 8.81292 15.3 8.49992 15.3C8.18693 15.3 7.93327 15.0463 7.93327 14.7334V6.23338ZM5.66659 5.66667C5.97958 5.66667 6.23324 5.92033 6.23324 6.23332L6.79996 14.7333C6.79996 15.0463 6.54624 15.3 6.23324 15.3C5.92031 15.3 5.66659 15.0462 5.66659 14.7333L5.09993 6.23338C5.09993 5.92039 5.35366 5.66667 5.66659 5.66667ZM13.8266 2.26757H11.3333V1.13337C11.3333 0.273671 11.0552 0 10.1999 0H6.7999C6.01542 0 5.66659 0.379986 5.66659 1.13337V2.26763H3.17329C2.67217 2.26763 2.2666 2.64799 2.2666 3.11802C2.2666 3.58811 2.67217 3.96848 3.17329 3.96848H13.8266C14.3277 3.96848 14.7332 3.58811 14.7332 3.11802C14.7332 2.64799 14.3277 2.26757 13.8266 2.26757ZM10.1999 2.26757H6.79996L6.80002 1.13331H10.2V2.26757H10.1999Z" fill="white"/>
</svg>
