<svg width="24" height="24" viewBox="0 0 24 24" fill="none" xmlns="http://www.w3.org/2000/svg">
<path d="M21.4144 9.79053H12.3768C10.951 9.79053 9.79102 10.9505 9.79102 12.3763V17.2865L7.44946 18.959C7.26471 19.0908 7.15503 19.304 7.15503 19.531C7.15503 19.7582 7.26471 19.9714 7.44946 20.1032L9.81921 21.7958C10.0043 23.0413 11.0808 23.9999 12.3768 23.9999H21.4144C22.8402 23.9999 24.0002 22.8399 24.0002 21.4139V12.3763C24.0002 10.9505 22.8402 9.79053 21.4144 9.79053ZM18.3756 19.6705C18.2098 19.6705 18.0818 19.618 18.0443 19.4748L17.7579 18.473H16.0331L15.7471 19.4748C15.7094 19.618 15.5814 19.6705 15.4157 19.6705C15.152 19.6705 14.798 19.505 14.798 19.264C14.798 19.2488 14.8055 19.2188 14.813 19.1886L16.2667 14.4513C16.3345 14.2253 16.6132 14.1197 16.8918 14.1197C17.178 14.1197 17.4567 14.2253 17.5245 14.4513L18.9782 19.1886C18.9857 19.2188 18.9932 19.2413 18.9932 19.264C18.9932 19.4973 18.6392 19.6705 18.3756 19.6705V19.6705Z" fill="#333333"/>
<path d="M16.2363 17.7047H17.547L16.8915 15.3926L16.2363 17.7047Z" fill="#333333"/>
<path d="M8.38458 12.3765C8.38458 11.4324 8.71472 10.5645 9.26459 9.88019C8.4624 9.88019 7.71808 9.62915 7.10449 9.2027C6.49091 9.62933 5.74658 9.88019 4.94421 9.88019C4.7254 9.88019 4.54779 9.70258 4.54779 9.48358C4.54779 9.26459 4.7254 9.08716 4.94421 9.08716C5.50616 9.08716 6.03204 8.93152 6.4823 8.66199C5.93921 8.07587 5.57812 7.31909 5.49078 6.48157H4.9444C4.7254 6.48157 4.54779 6.30414 4.54779 6.08514C4.54779 5.86615 4.7254 5.68854 4.9444 5.68854H6.70825V4.72577C6.70825 4.50659 6.88568 4.32916 7.10468 4.32916C7.32367 4.32916 7.5011 4.50659 7.5011 4.72577V5.68854H9.26495C9.48395 5.68854 9.66156 5.86615 9.66156 6.08514C9.66156 6.30414 9.48395 6.48157 9.26495 6.48157H8.71857C8.63123 7.31909 8.27014 8.07587 7.72705 8.66199C8.17712 8.93188 8.70319 9.08716 9.26495 9.08716C9.47424 9.08716 9.64526 9.24939 9.6601 9.45502C10.3733 8.79144 11.3282 8.3844 12.3768 8.3844H14.2094V6.71338L16.5509 5.04089C16.7355 4.90906 16.8452 4.69592 16.8452 4.46887C16.8452 4.24164 16.7355 4.0285 16.5509 3.89667L14.1812 2.20404C13.9958 0.958557 12.9194 0 11.6234 0H2.586C1.15997 0 0 1.15997 0 2.58582V11.6235C0 13.0494 1.15997 14.2094 2.586 14.2094H8.38458V12.3765Z" fill="#333333"/>
<path d="M7.10443 8.16669C7.53839 7.71643 7.83301 7.13177 7.91925 6.48193H6.28979C6.37604 7.13177 6.67084 7.71643 7.10443 8.16669Z" fill="#333333"/>
</svg>
