<svg width="230" height="72" viewBox="0 0 230 72" fill="none" xmlns="http://www.w3.org/2000/svg">
<path d="M92.8089 37.8152H97.899L91.7278 18.6313H86.0142L79.8555 37.8152H84.4872L85.6706 33.6009H91.6641L92.8089 37.8152ZM88.5716 22.9521H88.8136L90.7863 30.0911H86.561L88.5716 22.9521Z" fill="white"/>
<path d="M100.711 37.8153H105.203V17.4749H100.711V37.8153Z" fill="white"/>
<path d="M109.974 19.6287V23.2181H107.798V26.7145H109.974V33.7606C109.974 36.6588 111.438 37.8421 115.166 37.8421C116.019 37.8421 116.846 37.7623 117.316 37.6559V34.3057C116.986 34.3456 116.706 34.3722 116.184 34.3722C115.014 34.3722 114.467 33.8272 114.467 32.7103V26.7145H117.316V23.2181H114.467V19.6287H109.974Z" fill="white"/>
<path d="M126.606 26.0096C128.107 26.0096 129.049 27.0333 129.125 28.7616H123.985C124.099 27.0864 125.129 26.0096 126.606 26.0096ZM129.29 33.4545C128.985 34.3186 128.082 34.8238 126.771 34.8238C125.054 34.8238 123.997 33.6274 123.959 31.6996V31.4603H133.49V30.1575C133.49 25.438 130.945 22.6727 126.58 22.6727C122.19 22.6727 119.531 25.6373 119.531 30.5164C119.531 35.3689 122.127 38.1607 126.644 38.1607C130.308 38.1607 132.905 36.3394 133.401 33.4545H129.29Z" fill="white"/>
<path d="M136.289 37.8154H140.781V29.9851C140.781 27.9244 142.105 26.7545 144.089 26.7545C144.777 26.7545 145.68 26.8741 146.023 27.0204V23.0187C145.693 22.8725 144.993 22.7927 144.394 22.7927C142.626 22.7927 141.252 23.9626 140.908 25.4516H140.666V23.0187H136.289V37.8154Z" fill="white"/>
<path d="M148.454 37.8151H152.946V29.3598C152.946 27.6581 153.823 26.5148 155.287 26.5148C156.814 26.5148 157.514 27.5119 157.514 29.3066V37.8151H162.018V28.2563C162.018 24.7067 160.377 22.6727 157.221 22.6727C155.172 22.6727 153.696 23.7496 153.073 25.4247H152.831V23.0183H148.454V37.8151Z" fill="white"/>
<path d="M170.9 34.7574C169.768 34.7574 169.016 34.1724 169.016 33.2285C169.016 32.3377 169.717 31.7927 171.053 31.6863L173.432 31.5268V32.4973C173.432 33.7736 172.325 34.7574 170.9 34.7574ZM169.258 38.0411C171.053 38.0411 172.605 37.2435 173.242 35.9805H173.483V37.8151H177.861V27.7246C177.861 24.5339 175.634 22.6727 171.727 22.6727C167.897 22.6727 165.391 24.4542 165.187 27.3257H169.234C169.526 26.5414 170.29 26.1293 171.472 26.1293C172.72 26.1293 173.432 26.7275 173.432 27.7246V28.8812L170.34 29.0673C166.688 29.2933 164.677 30.8621 164.677 33.5608C164.677 36.2729 166.536 38.0411 169.258 38.0411Z" fill="white"/>
<path d="M182.403 19.6287V23.2181H180.227V26.7145H182.403V33.7606C182.403 36.6588 183.866 37.8421 187.595 37.8421C188.448 37.8421 189.275 37.7623 189.745 37.6559V34.3057C189.414 34.3456 189.134 34.3722 188.613 34.3722C187.442 34.3722 186.895 33.8272 186.895 32.7103V26.7145H189.745V23.2181H186.895V19.6287H182.403Z" fill="white"/>
<path d="M192.71 37.8156H197.214V23.0189H192.71V37.8156ZM194.962 21.038C196.273 21.038 197.355 19.9612 197.355 18.5918C197.355 17.2225 196.273 16.1323 194.962 16.1323C193.651 16.1323 192.57 17.2225 192.57 18.5918C192.57 19.9612 193.651 21.038 194.962 21.038Z" fill="white"/>
<path d="M214.214 23.0187H209.481L207.076 33.6011H206.835L204.379 23.0187H199.531L204.302 37.8154H209.494L214.214 23.0187Z" fill="white"/>
<path d="M222.27 26.0096C223.771 26.0096 224.713 27.0333 224.788 28.7616H219.648C219.763 27.0864 220.793 26.0096 222.27 26.0096ZM224.955 33.4545C224.649 34.3186 223.745 34.8238 222.435 34.8238C220.717 34.8238 219.661 33.6274 219.622 31.6996V31.4603H229.153V30.1575C229.153 25.438 226.609 22.6727 222.244 22.6727C217.854 22.6727 215.195 25.6373 215.195 30.5164C215.195 35.3689 217.79 38.1607 222.308 38.1607C225.972 38.1607 228.568 36.3394 229.065 33.4545H224.955Z" fill="white"/>
<path d="M137.432 56.1992C139.481 56.1992 140.989 54.9362 141.243 53.0418H139.825C139.57 54.1253 138.648 54.81 137.432 54.81C135.778 54.81 134.747 53.4074 134.747 51.174C134.747 48.9338 135.778 47.5312 137.426 47.5312C138.635 47.5312 139.557 48.289 139.825 49.4656H141.243C141.014 47.5113 139.45 46.142 137.426 46.142C134.875 46.142 133.291 48.063 133.291 51.174C133.291 54.2781 134.882 56.1992 137.432 56.1992Z" fill="white"/>
<path d="M150.03 46.142C147.396 46.142 145.742 48.0697 145.742 51.1673C145.742 54.2583 147.358 56.1992 150.03 56.1992C152.683 56.1992 154.312 54.2516 154.312 51.1673C154.312 48.0763 152.671 46.142 150.03 46.142ZM150.03 47.5312C151.767 47.5312 152.855 48.9404 152.855 51.1673C152.855 53.3808 151.773 54.81 150.03 54.81C148.261 54.81 147.199 53.3808 147.199 51.1673C147.199 48.9404 148.293 47.5312 150.03 47.5312Z" fill="white"/>
<path d="M168.532 55.9669V46.375H166.865L163.938 53.7135H163.831L160.91 46.375H159.243V55.9669H160.567V49.0405H160.655L163.347 55.7409H164.428L167.12 49.0405H167.208V55.9669H168.532Z" fill="white"/>
<path d="M183.121 55.9669V46.375H181.455L178.527 53.7135H178.42L175.499 46.375H173.832V55.9669H175.156V49.0405H175.245L177.936 55.7409H179.018L181.709 49.0405H181.797V55.9669H183.121Z" fill="white"/>
<path d="M194.249 54.6109H189.846V51.7327H194.013V50.4431H189.846V47.731H194.249V46.375H188.421V55.9669H194.249V54.6109Z" fill="white"/>
<path d="M200.732 47.6845H202.743C203.844 47.6845 204.518 48.316 204.518 49.3596C204.518 50.4298 203.882 51.0413 202.781 51.0413H200.732V47.6845ZM200.732 52.311H202.743L204.613 55.9669H206.261L204.199 52.0651C205.319 51.6662 205.981 50.6159 205.981 49.3264C205.981 47.5249 204.791 46.375 202.94 46.375H199.307V55.9669H200.732V52.311Z" fill="white"/>
<path d="M214.774 56.1992C216.823 56.1992 218.331 54.9362 218.585 53.0418H217.167C216.912 54.1253 215.99 54.81 214.774 54.81C213.12 54.81 212.089 53.4074 212.089 51.174C212.089 48.9338 213.12 47.5312 214.768 47.5312C215.977 47.5312 216.9 48.289 217.167 49.4656H218.585C218.356 47.5113 216.791 46.142 214.768 46.142C212.217 46.142 210.633 48.063 210.633 51.174C210.633 54.2781 212.223 56.1992 214.774 56.1992Z" fill="white"/>
<path d="M229.287 54.6109H224.884V51.7327H229.052V50.4431H224.884V47.731H229.287V46.375H223.459V55.9669H229.287V54.6109Z" fill="white"/>
<path d="M18.5588 32.342L0 49.941L7.52358 52.4947L18.5588 32.342Z" fill="white"/>
<path d="M43.3771 64.6643L64.989 72L63.5253 64.6643H43.3771Z" fill="white"/>
<path d="M55.983 26.8648L50.9473 1.62817L45.166 7.11057L55.983 26.8648Z" fill="white"/>
<path fill-rule="evenodd" clip-rule="evenodd" d="M38.7704 0L4.60403 62.3953H72.9368L38.7704 0ZM38.7704 22.8455L23.3258 51.0507H54.215L38.7704 22.8455Z" fill="white"/>
</svg>
