<svg width="160" height="50" viewBox="0 0 160 50" fill="none" xmlns="http://www.w3.org/2000/svg">
<path d="M64.5628 26.2605H68.1038L63.8107 12.9384H59.836L55.5518 26.2605H58.7738L59.5971 23.3339H63.7664L64.5628 26.2605ZM61.6151 15.9389H61.7835L63.1558 20.8966H60.2164L61.6151 15.9389Z" fill="#333333"/>
<path d="M70.0596 26.2607H73.1847V12.1354H70.0596V26.2607Z" fill="#333333"/>
<path d="M76.5039 13.631V16.1237H74.9902V18.5517H76.5039V23.4449C76.5039 25.4575 77.5221 26.2792 80.1156 26.2792C80.7089 26.2792 81.2842 26.2238 81.6114 26.1499V23.8234C81.3812 23.851 81.1865 23.8695 80.8239 23.8695C80.0096 23.8695 79.629 23.491 79.629 22.7155V18.5517H81.6114V16.1237H79.629V13.631H76.5039Z" fill="#333333"/>
<path d="M88.0738 18.0622C89.1182 18.0622 89.7732 18.7731 89.826 19.9733H86.2502C86.3299 18.81 87.0466 18.0622 88.0738 18.0622ZM89.941 23.2323C89.7289 23.8324 89.1003 24.1832 88.1888 24.1832C86.9939 24.1832 86.2586 23.3523 86.2322 22.0136V21.8474H92.8624V20.9427C92.8624 17.6652 91.0922 15.7449 88.0558 15.7449C85.002 15.7449 83.1521 17.8037 83.1521 21.1919C83.1521 24.5617 84.9576 26.5005 88.1001 26.5005C90.6493 26.5005 92.4555 25.2357 92.8006 23.2323H89.941Z" fill="#333333"/>
<path d="M94.8098 26.2607H97.9343V20.8229C97.9343 19.3919 98.8553 18.5795 100.236 18.5795C100.714 18.5795 101.342 18.6626 101.581 18.7641V15.9852C101.351 15.8836 100.865 15.8282 100.448 15.8282C99.2179 15.8282 98.2621 16.6407 98.023 17.6747H97.8546V15.9852H94.8098V26.2607Z" fill="#333333"/>
<path d="M103.272 26.2604H106.397V20.3887C106.397 19.207 107.008 18.4131 108.026 18.4131C109.088 18.4131 109.575 19.1054 109.575 20.3518V26.2604H112.708V19.6224C112.708 17.1574 111.567 15.7449 109.371 15.7449C107.946 15.7449 106.919 16.4927 106.486 17.656H106.317V15.9849H103.272V26.2604Z" fill="#333333"/>
<path d="M118.887 24.1371C118.099 24.1371 117.577 23.7308 117.577 23.0753C117.577 22.4567 118.064 22.0782 118.993 22.0044L120.648 21.8936V22.5676C120.648 23.4539 119.878 24.1371 118.887 24.1371ZM117.745 26.4174C118.993 26.4174 120.073 25.8635 120.516 24.9864H120.684V26.2604H123.729V19.2532C123.729 17.0374 122.18 15.7449 119.462 15.7449C116.798 15.7449 115.054 16.9821 114.912 18.9762H117.728C117.931 18.4315 118.462 18.1453 119.285 18.1453C120.153 18.1453 120.648 18.5607 120.648 19.2532V20.0564L118.498 20.1856C115.957 20.3426 114.558 21.432 114.558 23.3061C114.558 25.1895 115.851 26.4174 117.745 26.4174Z" fill="#333333"/>
<path d="M126.889 13.631V16.1237H125.375V18.5517H126.889V23.4449C126.889 25.4575 127.907 26.2792 130.501 26.2792C131.094 26.2792 131.669 26.2238 131.996 26.1499V23.8234C131.766 23.851 131.572 23.8695 131.209 23.8695C130.395 23.8695 130.014 23.491 130.014 22.7155V18.5517H131.996V16.1237H130.014V13.631H126.889Z" fill="#333333"/>
<path d="M134.059 26.2608H137.192V15.9853H134.059V26.2608ZM135.626 14.6098C136.537 14.6098 137.29 13.8619 137.29 12.911C137.29 11.9601 136.537 11.203 135.626 11.203C134.714 11.203 133.962 11.9601 133.962 12.911C133.962 13.8619 134.714 14.6098 135.626 14.6098Z" fill="#333333"/>
<path d="M149.019 15.9852H145.726L144.053 23.3341H143.885L142.177 15.9852H138.804L142.123 26.2607H145.735L149.019 15.9852Z" fill="#333333"/>
<path d="M154.622 18.0622C155.667 18.0622 156.322 18.7731 156.375 19.9733H152.799C152.879 18.81 153.595 18.0622 154.622 18.0622ZM156.49 23.2323C156.277 23.8324 155.649 24.1832 154.737 24.1832C153.542 24.1832 152.808 23.3523 152.781 22.0136V21.8474H159.411V20.9427C159.411 17.6652 157.641 15.7449 154.604 15.7449C151.551 15.7449 149.701 17.8037 149.701 21.1919C149.701 24.5617 151.506 26.5005 154.649 26.5005C157.198 26.5005 159.004 25.2357 159.349 23.2323H156.49Z" fill="#333333"/>
<path d="M95.6051 39.0272C97.0301 39.0272 98.0794 38.1502 98.2561 36.8346H97.2692C97.0924 37.587 96.4506 38.0625 95.6051 38.0625C94.4545 38.0625 93.7372 37.0885 93.7372 35.5375C93.7372 33.9818 94.4545 33.0078 95.6009 33.0078C96.4416 33.0078 97.0834 33.534 97.2692 34.3511H98.2561C98.0967 32.994 97.0085 32.043 95.6009 32.043C93.8259 32.043 92.7239 33.3771 92.7239 35.5375C92.7239 37.6932 93.8307 39.0272 95.6051 39.0272Z" fill="#333333"/>
<path d="M104.369 32.043C102.537 32.043 101.385 33.3817 101.385 35.5328C101.385 37.6793 102.51 39.0272 104.369 39.0272C106.214 39.0272 107.347 37.6747 107.347 35.5328C107.347 33.3863 106.206 32.043 104.369 32.043ZM104.369 33.0078C105.577 33.0078 106.334 33.9864 106.334 35.5328C106.334 37.07 105.581 38.0625 104.369 38.0625C103.138 38.0625 102.399 37.07 102.399 35.5328C102.399 33.9864 103.16 33.0078 104.369 33.0078Z" fill="#333333"/>
<path d="M117.24 38.866V32.2049H116.08L114.044 37.3011H113.969L111.937 32.2049H110.778V38.866H111.699V34.056H111.76L113.632 38.709H114.385L116.257 34.056H116.319V38.866H117.24Z" fill="#333333"/>
<path d="M127.389 38.866V32.2049H126.229L124.193 37.3011H124.118L122.086 32.2049H120.927V38.866H121.848V34.056H121.909L123.781 38.709H124.534L126.406 34.056H126.468V38.866H127.389Z" fill="#333333"/>
<path d="M135.13 37.9243H132.067V35.9255H134.966V35.03H132.067V33.1466H135.13V32.2049H131.075V38.866H135.13V37.9243Z" fill="#333333"/>
<path d="M139.64 33.1143H141.038C141.804 33.1143 142.274 33.5528 142.274 34.2775C142.274 35.0207 141.831 35.4454 141.065 35.4454H139.64V33.1143ZM139.64 36.3271H141.038L142.339 38.866H143.486L142.052 36.1563C142.831 35.8793 143.291 35.15 143.291 34.2545C143.291 33.0035 142.464 32.2049 141.176 32.2049H138.649V38.866H139.64V36.3271Z" fill="#333333"/>
<path d="M149.408 39.0272C150.833 39.0272 151.883 38.1502 152.059 36.8346H151.072C150.896 37.587 150.254 38.0625 149.408 38.0625C148.258 38.0625 147.54 37.0885 147.54 35.5375C147.54 33.9818 148.258 33.0078 149.404 33.0078C150.245 33.0078 150.887 33.534 151.072 34.3511H152.059C151.9 32.994 150.811 32.043 149.404 32.043C147.629 32.043 146.527 33.3771 146.527 35.5375C146.527 37.6932 147.633 39.0272 149.408 39.0272Z" fill="#333333"/>
<path d="M159.504 37.9243H156.441V35.9255H159.34V35.03H156.441V33.1466H159.504V32.2049H155.45V38.866H159.504V37.9243Z" fill="#333333"/>
<path d="M12.9104 22.4597L0 34.6812L5.23379 36.4546L12.9104 22.4597Z" fill="#333333"/>
<path d="M30.1753 44.9057L45.2097 50L44.1914 44.9057H30.1753Z" fill="#333333"/>
<path d="M38.9448 18.6561L35.4417 1.13068L31.4199 4.93789L38.9448 18.6561Z" fill="#333333"/>
<path fill-rule="evenodd" clip-rule="evenodd" d="M26.9708 0L3.20288 43.3301H50.7387L26.9708 0ZM26.9708 15.8649L16.2267 35.4519H37.7148L26.9708 15.8649Z" fill="#019AD2"/>
</svg>
