<svg width="130" height="50" viewBox="0 0 130 50" fill="none" xmlns="http://www.w3.org/2000/svg">
<path d="M26.678 28.7658C24.8692 35.9979 17.5207 40.3993 10.2646 38.5958C3.01142 36.7927 -1.40406 29.4674 0.405641 22.2357C2.21365 15.0027 9.56206 10.6009 16.8161 12.404C24.0718 14.2071 28.4869 21.5333 26.678 28.7658Z" fill="#F7931A"/>
<path d="M19.6017 23.509C19.8694 21.7359 18.507 20.7827 16.6442 20.1468L17.2485 17.7448L15.7731 17.3804L15.1848 19.7191C14.7969 19.6233 14.3986 19.533 14.0027 19.4434L14.5952 17.0894L13.1207 16.725L12.516 19.1261C12.1949 19.0536 11.8798 18.982 11.5739 18.9067L11.5755 18.8992L9.54084 18.3957L9.14836 19.9573C9.14836 19.9573 10.243 20.2059 10.2199 20.2213C10.8175 20.3692 10.9255 20.761 10.9074 21.0717L10.2191 23.808C10.2602 23.8184 10.3136 23.8334 10.3725 23.8568C10.3233 23.8447 10.2708 23.8314 10.2166 23.8184L9.25172 27.6517C9.1786 27.8316 8.9933 28.1014 8.5756 27.999C8.59031 28.0202 7.5032 27.7337 7.5032 27.7337L6.77075 29.4074L8.69073 29.8817C9.04792 29.9704 9.39796 30.0632 9.74254 30.1507L9.13197 32.5801L10.6057 32.9445L11.2104 30.5409C11.6129 30.6491 12.0037 30.7491 12.3861 30.8432L11.7835 33.2356L13.2589 33.6L13.8695 31.1751C16.3854 31.6469 18.2772 31.4566 19.0735 29.2016C19.7152 27.386 19.0416 26.3387 17.7179 25.6557C18.6819 25.4354 19.408 24.8071 19.6017 23.509ZM16.2307 28.1935C15.7748 30.0091 12.69 29.0276 11.6898 28.7815L12.5 25.5629C13.5001 25.8102 16.7072 26.3 16.2307 28.1935ZM16.6871 23.4828C16.2711 25.1344 13.7035 24.2953 12.8706 24.0895L13.6052 21.1704C14.4381 21.3761 17.1203 21.76 16.6871 23.4828Z" fill="white"/>
<path d="M39.6853 20.1668C40.7802 20.1668 41.7262 20.363 42.5211 20.7483C43.3198 21.1374 43.9789 21.6616 44.5076 22.3208C45.0291 22.9833 45.4173 23.7577 45.6679 24.6452C45.9168 25.5352 46.0417 26.4919 46.0417 27.5162C46.0417 29.0894 45.7536 30.5758 45.1717 31.9769C44.5899 33.38 43.8004 34.5971 42.7962 35.6353C41.7928 36.6722 40.608 37.4896 39.2418 38.0935C37.8777 38.6978 36.3946 39 34.8022 39C34.5963 39 34.2343 38.9941 33.7229 38.9835C33.2115 38.973 32.6237 38.9202 31.9655 38.8312C31.3031 38.7388 30.6027 38.602 29.863 38.4189C29.1238 38.2391 28.4217 37.9872 27.7605 37.6673L33.6727 12.8208L38.968 12L36.8511 20.8171C37.3043 20.6129 37.7608 20.4546 38.2165 20.3394C38.6726 20.2259 39.1621 20.1668 39.6853 20.1668ZM35.2435 34.7984C36.041 34.7984 36.7925 34.6022 37.4984 34.2169C38.2064 33.8312 38.8173 33.3104 39.3292 32.6618C39.841 32.0102 40.246 31.2763 40.5414 30.4563C40.8367 29.6364 40.9861 28.7809 40.9861 27.8909C40.9861 26.7975 40.8034 25.9446 40.4393 25.328C40.0751 24.714 39.4013 24.4051 38.4228 24.4051C38.1022 24.4051 37.6891 24.4663 37.1769 24.5756C36.6629 24.6916 36.203 24.9326 35.7908 25.2951L33.5368 34.6587C33.6727 34.6828 33.7929 34.7056 33.8954 34.7271C33.9959 34.7503 34.1068 34.7668 34.2174 34.7782C34.3343 34.7913 34.468 34.798 34.6296 34.798C34.7912 34.798 34.9933 34.7984 35.2435 34.7984Z" fill="#333333"/>
<path d="M51.6835 38.325H46.7188L50.9115 20.7127H55.9103L51.6835 38.325ZM54.0995 18.5668C53.4065 18.5668 52.7782 18.3609 52.2207 17.9483C51.6587 17.5381 51.3804 16.9068 51.3804 16.0559C51.3804 15.5878 51.4756 15.1487 51.6645 14.7344C51.8563 14.321 52.1068 13.965 52.4208 13.6623C52.7343 13.3622 53.0976 13.1224 53.5101 12.9417C53.9251 12.7639 54.3666 12.675 54.8371 12.675C55.5296 12.675 56.1546 12.8809 56.7142 13.2935C57.2717 13.7082 57.5521 14.3396 57.5521 15.1859C57.5521 15.6556 57.4572 16.0964 57.2667 16.5099C57.0774 16.9233 56.8268 17.2793 56.5129 17.582C56.2018 17.8825 55.8353 18.1215 55.4236 18.3006C55.0082 18.4812 54.5683 18.5668 54.0995 18.5668Z" fill="#333333"/>
<path d="M60.7212 16.1938L66.0326 15.375L64.7283 20.6606H70.4167L69.3895 24.8189H63.7354L62.2294 31.0913C62.0906 31.6142 62.0119 32.1025 61.9899 32.5563C61.965 33.0122 62.0229 33.4037 62.16 33.7333C62.2962 34.0638 62.5412 34.3184 62.8965 34.4986C63.2502 34.6817 63.7566 34.7739 64.4208 34.7739C64.9678 34.7739 65.5008 34.7221 66.0161 34.6194C66.5284 34.5184 67.0475 34.3778 67.5729 34.1938L67.9511 38.0819C67.2658 38.3319 66.5237 38.547 65.7242 38.7281C64.9233 38.9116 63.9753 39 62.8796 39C61.3041 39 60.0828 38.7672 59.2126 38.3037C58.3436 37.8369 57.7294 37.1991 57.3617 36.3917C56.9992 35.5872 56.8372 34.6598 56.8824 33.615C56.9294 32.5677 57.088 31.4668 57.3617 30.3075L60.7212 16.1938Z" fill="#333333"/>
<path d="M69.7395 31.3593C69.7395 29.8139 69.9986 28.3565 70.5163 26.9922C71.0331 25.6266 71.7776 24.4325 72.7436 23.4077C73.7062 22.388 74.8789 21.5801 76.2593 20.987C77.6331 20.3973 79.1714 20.1 80.8666 20.1C81.9278 20.1 82.8755 20.1969 83.7094 20.391C84.5468 20.5869 85.3043 20.84 85.9895 21.1576L84.1865 25.117C83.7155 24.9325 83.2266 24.7699 82.7211 24.6225C82.2152 24.4721 81.5976 24.3997 80.8671 24.3997C79.1221 24.3997 77.7426 24.9805 76.7159 26.1384C75.6932 27.2971 75.1781 28.8569 75.1781 30.8134C75.1781 31.973 75.4372 32.9106 75.9571 33.6279C76.4743 34.3452 77.4299 34.702 78.8172 34.702C79.502 34.702 80.1627 34.6329 80.7956 34.4981C81.4332 34.3616 81.9962 34.1898 82.4921 33.9868L82.8825 38.0455C82.2213 38.2932 81.4921 38.5168 80.6922 38.7127C79.8906 38.9018 78.9363 39 77.8298 39C76.3692 39 75.1328 38.7936 74.1214 38.3871C73.1095 37.9743 72.2734 37.4263 71.6149 36.7322C70.9528 36.0364 70.4774 35.2239 70.1835 34.2913C69.8895 33.3596 69.7395 32.3807 69.7395 31.3593Z" fill="#333333"/>
<path d="M92.2975 39C91.1107 39 90.0799 38.8163 89.2055 38.4528C88.3335 38.0893 87.6114 37.5792 87.0402 36.9179C86.4681 36.26 86.0401 35.4804 85.7468 34.5819C85.4535 33.6839 85.3125 32.6894 85.3125 31.5998C85.3125 30.233 85.5286 28.8666 85.9654 27.504C86.4001 26.1384 87.0451 24.9114 87.8988 23.8209C88.7459 22.7287 89.7908 21.8358 91.0211 21.1395C92.2502 20.4479 93.6638 20.1 95.2517 20.1C96.4169 20.1 97.4423 20.284 98.3288 20.6475C99.2111 21.0102 99.9378 21.5245 100.512 22.1824C101.081 22.8437 101.512 23.62 101.803 24.5197C102.095 25.416 102.24 26.413 102.24 27.5035C102.24 28.8661 102.026 30.2325 101.603 31.5994C101.18 32.9594 100.551 34.1894 99.7217 35.2824C98.8937 36.3729 97.8584 37.2654 96.6148 37.9588C95.3728 38.6521 93.9326 39 92.2975 39ZM94.7826 24.4001C94.0455 24.4001 93.3938 24.6174 92.8359 25.0466C92.2759 25.4809 91.8055 26.0268 91.4264 26.6851C91.0431 27.3464 90.7589 28.0675 90.5669 28.8514C90.3765 29.637 90.2831 30.3795 90.2831 31.0851C90.2831 32.2236 90.464 33.1102 90.8195 33.7484C91.18 34.3831 91.8275 34.7024 92.7687 34.7024C93.5083 34.7024 94.1566 34.4867 94.7179 34.0529C95.2745 33.622 95.7454 33.0757 96.1274 32.4161C96.5082 31.7582 96.7948 31.0349 96.9869 30.2498C97.1748 29.4668 97.2706 28.72 97.2706 28.0157C97.2706 26.8802 97.0906 25.9914 96.7318 25.3541C96.3734 24.7194 95.7229 24.4001 94.7826 24.4001Z" fill="#333333"/>
<path d="M107.883 38.325H102.917L107.107 20.7127H112.106L107.883 38.325ZM110.294 18.5668C109.602 18.5668 108.974 18.3609 108.418 17.9483C107.859 17.5381 107.579 16.9068 107.579 16.0559C107.579 15.5878 107.675 15.1487 107.864 14.7344C108.053 14.321 108.305 13.965 108.619 13.6623C108.931 13.3622 109.297 13.1224 109.709 12.9417C110.121 12.7639 110.562 12.675 111.031 12.675C111.725 12.675 112.352 12.8809 112.91 13.2935C113.468 13.7082 113.75 14.3396 113.75 15.1859C113.75 15.6556 113.65 16.0964 113.462 16.5099C113.275 16.9233 113.023 17.2793 112.71 17.582C112.396 17.8825 112.034 18.1215 111.621 18.3006C111.206 18.4812 110.765 18.5668 110.294 18.5668Z" fill="#333333"/>
<path d="M115.963 21.3208C116.357 21.2096 116.796 21.0757 117.275 20.9302C117.755 20.7846 118.291 20.6491 118.89 20.527C119.483 20.4011 120.151 20.2991 120.887 20.22C121.622 20.1393 122.46 20.1 123.391 20.1C126.127 20.1 128.014 20.87 129.055 22.4053C130.096 23.9407 130.276 26.042 129.601 28.7054L127.214 38.325H121.991L124.304 28.9078C124.445 28.3197 124.556 27.7513 124.638 27.1959C124.721 26.6455 124.716 26.1603 124.619 25.7404C124.527 25.3255 124.31 24.9859 123.973 24.7228C123.63 24.4639 123.113 24.3339 122.412 24.3339C121.735 24.3339 121.047 24.4041 120.344 24.5396L116.944 38.3246H111.719L115.963 21.3208Z" fill="#333333"/>
</svg>
